<svg xmlns="http://www.w3.org/2000/svg" version="1.1" xmlns:xlink="http://www.w3.org/1999/xlink" xmlns:svgjs="http://svgjs.dev/svgjs" width="1440" height="560" preserveAspectRatio="none" viewBox="0 0 1440 560"><g mask="url(&quot;#SvgjsMask1074&quot;)" fill="none"><rect width="1440" height="560" x="0" y="0" fill="url(&quot;#SvgjsLinearGradient1075&quot;)"></rect><path d="M1440 0L926.28 0L1440 78.41z" fill="rgba(255, 255, 255, .1)"></path><path d="M926.28 0L1440 78.41L1440 117L925.29 0z" fill="rgba(255, 255, 255, .075)"></path><path d="M925.29 0L1440 117L1440 170.81L655.3299999999999 0z" fill="rgba(255, 255, 255, .05)"></path><path d="M655.3299999999999 0L1440 170.81L1440 423.55L281.3499999999999 0z" fill="rgba(255, 255, 255, .025)"></path><path d="M0 560L22.61 560L0 496.39z" fill="rgba(0, 0, 0, .1)"></path><path d="M0 496.39L22.61 560L678.0600000000001 560L0 279.33z" fill="rgba(0, 0, 0, .075)"></path><path d="M0 279.33L678.0600000000001 560L873.96 560L0 116.99999999999997z" fill="rgba(0, 0, 0, .05)"></path><path d="M0 117L873.96 560L1103.3700000000001 560L0 67.12z" fill="rgba(0, 0, 0, .025)"></path></g><defs><mask id="SvgjsMask1074"><rect width="1440" height="560" fill="#ffffff"></rect></mask><linearGradient x1="15.28%" y1="-39.29%" x2="84.72%" y2="139.29%" gradientUnits="userSpaceOnUse" id="SvgjsLinearGradient1075"><stop stop-color="#0e2a47" offset="0"></stop><stop stop-color="rgba(0, 158, 72, 1)" offset="1"></stop></linearGradient></defs></svg>